<?xml version="1.0" encoding="utf-8"?>
<!-- Generator: Adobe Illustrator 21.1.0, SVG Export Plug-In . SVG Version: 6.00 Build 0)  -->
<svg version="1.1" id="Layer_1" xmlns="http://www.w3.org/2000/svg" xmlns:xlink="http://www.w3.org/1999/xlink" x="0px" y="0px"
	 viewBox="0 0 240.5 229" style="enable-background:new 0 0 240.5 229;" xml:space="preserve">
<style type="text/css">
	.st0{fill:#FBB144;}
	.st1{fill:#FFCF5D;}
	.st2{fill-rule:evenodd;clip-rule:evenodd;fill:#999999;}
	.st3{fill-rule:evenodd;clip-rule:evenodd;fill:#808080;}
	.st4{fill-rule:evenodd;clip-rule:evenodd;fill:#666666;}
	.st5{fill-rule:evenodd;clip-rule:evenodd;fill:#FBB144;}
	.st6{fill-rule:evenodd;clip-rule:evenodd;fill:#FFCF5D;}
	.st7{fill-rule:evenodd;clip-rule:evenodd;fill:#CCCCCC;}
	.st8{fill-rule:evenodd;clip-rule:evenodd;fill:#B3B3B3;}
</style>
<g id="championship">
	<g>
		<path class="st0" d="M219,35.7c0-0.2-47.5,0-47.5,0s-1,65.3,0,65.3C187.8,101,220.4,74.2,219,35.7z M179.9,81.8c0-8,0-36.8,0-36.8
			s26.7-0.1,26.7,0C207.4,66.7,179.9,85.4,179.9,81.8z"/>
		<path class="st0" d="M18.5,35.7c0-0.2,47.5,0,47.5,0s1,65.3,0,65.3C49.7,101,17.1,74.2,18.5,35.7z M57.6,81.8c0-8,0-36.8,0-36.8
			s-26.7-0.1-26.7,0C30.1,66.7,57.6,85.4,57.6,81.8z"/>
	</g>
	<path class="st0" d="M137.6,199.1h-34v-3.5c6.3-7.3,10.2-17.4,10.2-28.5c0-2.1-0.1-4.2-0.4-6.2h11c-0.3,2-0.4,4.1-0.4,6.2
		C123.9,180.2,129.3,191.8,137.6,199.1z"/>
	<path class="st0" d="M125.2,143.7c-2-0.1-3.9-0.2-5.9-0.2c-2.1-0.1-4.1-0.1-6.2-0.1c-0.9,0-1.8,0-2.6,0c-0.7,0-1.3-0.1-1.9-0.3
		c-0.2,0-0.3,0-0.5,0c0,0,0,0,0,0v13.4c0,6.8,4.8,12.4,10.8,12.4h0c5.9,0,10.8-5.6,10.8-12.4v-12.8
		C128.1,143.8,126.7,143.8,125.2,143.7z"/>
	<path class="st1" d="M150.9,29c-9.9-0.5-19.8-0.9-29.6-1.2c-10.3-0.3-20.7-0.7-31-0.7c-4.4,0-8.8,0.2-13.2,0.2
		c-3.3,0-6.6-0.4-9.8-1.5c-0.8,0-1.7,0-2.5,0c0,0,0,0,0,0v67.4c0,34.4,24.3,62.5,54.1,62.5h0c29.8,0,54.1-28.1,54.1-62.5V28.8
		C165.6,29.5,158.3,29.4,150.9,29z"/>
	<g>
		<path class="st0" d="M148.9,30.3v63.4c0,30.2-17,55.6-39.2,60.9c2.8,0.7,5.7,1,8.7,1h0c26.3,0,47.9-27.9,47.9-61.9V30
			C160.5,30.7,154.7,30.6,148.9,30.3z"/>
	</g>
	<path class="st1" d="M175.7,34.2H62c-3.4,0-6.1-3.2-6.1-7.1l0,0c0-3.9,2.8-7.1,6.1-7.1h113.7c3.4,0,6.1,3.2,6.1,7.1l0,0
		C181.8,31,179,34.2,175.7,34.2z"/>
	<path class="st0" d="M140.7,211.5H96.9c-3.6,0-6.6-3.4-6.6-7.6l0,0c0-4.2,3-7.6,6.6-7.6h43.8c3.6,0,6.6,3.4,6.6,7.6l0,0
		C147.3,208.1,144.3,211.5,140.7,211.5z"/>
</g>
<g id="best-player">
	<polygon class="st0" points="121.3,19 151.5,80.3 219.2,90.1 170.2,137.9 181.8,205.3 121.3,173.5 60.7,205.3 72.3,137.9 
		23.3,90.1 91,80.3 	"/>
	<polygon class="st1" points="170.2,137.9 219.2,90.1 121.9,122.2 	"/>
	<polygon class="st1" points="121.3,173.2 181.7,205.3 121.6,122.4 	"/>
	<polygon class="st1" points="151.9,80.4 121.6,19.1 122,121.5 	"/>
	<polygon class="st1" points="91.4,80.2 23.7,90 121.2,121.3 	"/>
	<polygon class="st1" points="72.3,137.9 60.7,205.3 120.6,122.2 	"/>
</g>
<g id="icon-jersey">
	<path class="st2" d="M38.4,135.6c3.8,10.9,4,22.8,3.5,34.4c54,0.8,108,1.5,162,2.3c-2.6-35.9,5-85.5,20.1-119.6
		c-6.1,6-22.4,19.4-28.5,25.3c-19,8-38,16-57.1,24c-19.3-9.2-38.6-18.5-57.9-27.7c-16.4-6.9-32.8-13.9-49.2-20.8
		c-1,14.2-2,28.4-3,42.5C31.5,109.4,35.3,122.2,38.4,135.6z"/>
	<path class="st3" d="M92.8,170.7l111.1,1.6c-2.1-29.5,2.7-68.3,12.8-100.2c-6.2,0.7-12.3,1.7-18.2,3.1c-1.1,1-2.2,2-3,2.8
		l-51.8,21.8C119.1,117.5,100.9,142.3,92.8,170.7z"/>
	<path class="st4" d="M203.8,143.9c0.4-8.1,1.3-16.4,2.4-24.8c-14.3-10.1-33.2-18-54.9-22.5l-12.8,5.4l-19.8-9.5
		c-3.4-0.2-6.8-0.2-10.3-0.2c-29.1,0-55.9,5.7-77.2,15.2c2.4,9.2,4.9,18.2,7,27.5c20-5.4,44.2-8.5,70.2-8.5
		C146.6,126.5,180.7,133.3,203.8,143.9z"/>
	<path class="st4" d="M203.8,143.9c0.4-8.1,1.3-16.4,2.4-24.8c-14.3-10.1-33.2-18-54.9-22.5l-7.6,3.2c-10.7,7.7-20.2,16.7-28.1,26.8
		C150.8,127.4,182.2,133.9,203.8,143.9z"/>
	<path class="st5" d="M41.1,73.8c3.4,13.4,6.4,27.3,8.6,42.1c2.2,14.8,3.6,30.6,3.9,47.7l-1.9,0.2c-0.2-16.9-1.6-32.4-3.8-47
		c-2.2-14.6-5.1-28.4-8.5-41.6L41.1,73.8L41.1,73.8z M206.6,82.6c-5,10.9-8,23.5-9.8,37.2c-1.8,13.8-2.4,28.6-2.8,43.6h-1.9
		c0.4-15.2,1-30.2,2.9-44.2c1.9-14.1,5-27.2,10.2-38.6L206.6,82.6L206.6,82.6z M183.8,88.4c-2.7,9.4-4.3,19.8-5.4,30.9
		c-1.3,13.9-1.7,28.9-2,44.2l-1.9,0c0.3-15.4,0.7-30.5,2-44.6c1-10.6,2.6-20.7,5-30L183.8,88.4L183.8,88.4z M162.7,93.3
		c-3.1,19.3-3.4,41.8-3.7,65.6l-0.1,4.6l-1.9,0.1l0.1-4.6c0.3-23.5,0.6-45.8,3.6-65.2L162.7,93.3L162.7,93.3z M142.6,98
		c-1.1,14.8-1.1,31.2-1.2,48.5c0,5.5,0,11.2-0.1,17l-1.9,0.1c0-5.7,0.1-11.4,0.1-17c0-17.2,0.1-33.4,1.1-48.2L142.6,98L142.6,98z
		 M123.2,98c-0.1,10.3,0,21.2,0.2,32.7c0.2,10.4,0.3,21.3,0.3,32.8l-1.9,0.1c0-11.2-0.1-22.2-0.3-32.7c-0.2-12.1-0.4-23.6-0.2-34.3
		L123.2,98L123.2,98z M103.4,83.3c0.2,8.7,0.7,17.8,1.1,27.4c0.8,16.3,1.6,33.9,1.6,52.8l-1.9,0.1c0-18.8-0.9-36.3-1.6-52.5
		c-0.5-10.3-1-20-1.2-29.2L103.4,83.3L103.4,83.3z M82.6,75.9c0.3,2.9,0.6,6.3,1,9.8c2.3,23.1,4.9,48.8,5.1,77.8l-1.9,0.2
		c-0.2-28.8-2.8-54.3-5.1-77.3c-0.3-3.2-0.6-6.3-1-9.8L82.6,75.9L82.6,75.9z M61.8,74.8c2.3,13.1,4.6,26.8,6.2,41.5
		c1.7,14.7,2.8,30.4,3,47.2l-1.9,0.2c-0.2-16.7-1.3-32.1-3-46.7c-1.7-14.6-3.9-28.2-6.2-41.2L61.8,74.8z"/>
	<path class="st6" d="M204.8,82.6c-5,10.9-8,23.5-9.8,37.2c-1.8,13.8-2.4,28.6-2.8,43.6h-1.9c0.4-15.2,1-30.2,2.9-44.2
		c1.9-14.1,4.9-27.2,10.2-38.6L204.8,82.6L204.8,82.6z M181.1,91.7c-2.2,8.6-3.6,17.8-4.5,27.6c-1.3,13.9-1.7,28.9-2,44.2l-1.9,0
		c0.3-15.4,0.7-30.5,2-44.6c0.9-9.3,2.2-18.2,4.2-26.5L181.1,91.7L181.1,91.7z M160.1,98.3c-2.4,18.2-2.7,38.8-3,60.6l-0.1,4.6
		l-1.9,0.1l0.1-4.6c0.3-21.5,0.6-41.9,2.9-60L160.1,98.3L160.1,98.3z M140.6,99.8c-1,14.3-1,30-1,46.6c0,5.5,0,11.2-0.1,17l-1.9,0.1
		c0-5.7,0.1-11.4,0.1-17c0-16.6,0.1-32.3,1-46.7L140.6,99.8L140.6,99.8z M121.4,94.7c-0.2,11.3,0,23.3,0.2,36
		c0.2,10.4,0.3,21.3,0.3,32.8l-1.9,0.1c0-11.2-0.1-22.2-0.3-32.7c-0.2-13.4-0.4-26-0.1-37.8L121.4,94.7L121.4,94.7z M101.5,78.4
		c0.2,10.2,0.7,20.9,1.2,32.3c0.8,16.3,1.6,33.9,1.6,52.8l-1.9,0.1c0-18.8-0.9-36.3-1.6-52.5c-0.6-12-1.1-23.3-1.3-33.9l0.5-0.1
		L101.5,78.4L101.5,78.4z M80.7,75.9c0.3,2.9,0.6,6.3,1,9.8c2.3,23.1,4.9,48.8,5.1,77.8l-1.9,0.2c-0.2-28.8-2.8-54.3-5.1-77.3
		c-0.3-3.2-0.6-6.3-1-9.8L80.7,75.9L80.7,75.9z M60,74.8c2.3,13.1,4.6,26.8,6.2,41.5c1.7,14.7,2.8,30.4,3,47.2l-1.9,0.2
		c-0.2-16.7-1.3-32.1-3-46.7c-1.7-14.6-3.9-28.2-6.2-41.2L60,74.8L60,74.8z M39.2,73.8c3.4,13.4,6.4,27.3,8.6,42.1
		c2.2,14.8,3.6,30.6,3.9,47.7l-1.9,0.2c-0.2-16.9-1.6-32.4-3.8-47c-2.2-14.6-5.1-28.4-8.5-41.6L39.2,73.8z"/>
	<path class="st6" d="M38.6,136.2C5.1,42.4,13.4,10.9,67,38.9c13.3,7,33.5,19.4,53.7,43.1c34.7-52.1,91.7-68.5,102.3-35.9
		c10.6,32.7-61.6,95.8-122.7,53.3C55.8,68.7,24.6,71.3,38.6,136.2z"/>
	<path class="st5" d="M28.6,106c-21-70.1-9-91.9,38.4-67.1c8.7,4.5,20.3,11.4,32.9,22.2C60.3,38.8,2.3,15.3,28.6,106z"/>
	<path class="st5" d="M156.5,54.8c43.3-37.6,68.4-10.1,39.6,15.2C182.9,64.9,169.7,59.9,156.5,54.8z"/>
	<path class="st4" d="M125.6,85.7c27.3,9.4,85.8-10.8,76.9-34.4C193.1,26.2,151.7,51.2,125.6,85.7z"/>
	<path class="st5" d="M141.9,88.1c0.5,0,1,0,1.5,0c-0.2-7.3-0.7-14.2-1.4-20.9c-0.5,0.5-1,0.9-1.4,1.4
		C141.2,74.8,141.7,81.3,141.9,88.1L141.9,88.1z M156.1,86.9c0.5-0.1,1-0.2,1.5-0.3c-0.3-10.9-1.1-21.2-2.2-31
		c-0.5,0.4-1,0.7-1.5,1.1C155.1,66.2,155.8,76.2,156.1,86.9L156.1,86.9z M170.3,83.5c0.5-0.2,1-0.3,1.5-0.5
		c-0.4-13-1.3-25.1-2.3-36.4c-0.5,0.3-1,0.5-1.5,0.8C169.1,58.7,170,70.7,170.3,83.5L170.3,83.5z M184.5,77.8c0.5-0.3,1-0.5,1.5-0.8
		c-0.3-9.5-0.7-18.5-1.1-27.1c-0.1-2.9-0.3-5.7-0.4-8.5c-0.5,0.1-1,0.2-1.5,0.3c0.1,2.8,0.3,5.7,0.4,8.6
		C183.8,58.9,184.2,68.1,184.5,77.8L184.5,77.8z M198.7,67.3c0.5-0.6,1.1-1.3,1.5-1.9c-0.1-6.5-0.2-12.7-0.2-18.7
		c-0.5-0.6-1-1.2-1.5-1.7c0,6.8,0.1,14,0.2,21.4L198.7,67.3z"/>
	<path class="st6" d="M140.4,88.1c0.5,0,1,0,1.6,0c-0.2-6.8-0.6-13.3-1.2-19.6c-0.5,0.5-1,1-1.4,1.4
		C139.8,75.8,140.2,81.8,140.4,88.1L140.4,88.1z M154.6,87.1c0.5-0.1,1-0.2,1.5-0.2c-0.3-10.6-1-20.7-2.1-30.2
		c-0.5,0.4-1,0.8-1.5,1.2C153.6,67.1,154.3,76.8,154.6,87.1L154.6,87.1z M168.8,84c0.5-0.2,1-0.3,1.5-0.5
		c-0.3-12.9-1.2-24.9-2.3-36.1c-0.5,0.3-1,0.6-1.5,0.8C167.6,59.4,168.5,71.3,168.8,84L168.8,84z M183,78.5c0.5-0.3,1-0.5,1.5-0.8
		c-0.3-9.7-0.7-19-1.1-27.9c-0.1-2.8-0.3-5.6-0.4-8.3c-0.5,0.1-1,0.2-1.5,0.3c0.1,2.7,0.3,5.5,0.4,8.3
		C182.3,59.2,182.7,68.6,183,78.5L183,78.5z M197.2,68.9c0.5-0.5,1-1.1,1.5-1.6l0-1.1c-0.1-7.4-0.2-14.4-0.2-21.2
		c-0.5-0.5-1-0.9-1.5-1.3c0,7.2,0.1,14.8,0.2,22.6L197.2,68.9z"/>
	<rect x="41.8" y="174.8" class="st5" width="161.5" height="30.5"/>
	<path class="st7" d="M36.5,178.9c60.8,0,113.1,0,173.9,0c0.9-5.9,1.8-11.8,2.8-17.7c-59.9-13.3-112.5-14.8-178.8,0.3L36.5,178.9z"
		/>
	<rect x="101.5" y="167.9" class="st8" width="44.5" height="37.4"/>
	<rect x="105.6" y="178.9" class="st4" width="36.3" height="26.5"/>
	<rect x="111.4" y="176.1" class="st6" width="1.1" height="29.2"/>
	<g>
		<path class="st6" d="M119.3,176.4c0.4,0,0.7,0,1.1,0c0,9.6,0,19.3,0,28.9c-0.4,0-0.7,0-1.1,0C119.3,195.7,119.3,186,119.3,176.4z"
			/>
		<path class="st6" d="M127.1,176.7c0.4,0,0.7,0,1.1,0c0,9.5,0,19.1,0,28.6c-0.4,0-0.7,0-1.1,0C127.1,195.8,127.1,186.3,127.1,176.7
			z"/>
	</g>
	<rect x="135" y="177" class="st6" width="1.1" height="28.3"/>
</g>
</svg>
